#!OML:ASF H:\Terrain\Patient Classification 1\Terrain2\Thursday\justin.ASF
:FULLY-SPECIFIED
:DEGREES
2137
root 26.562 17.2681 -21.9386 832.796 -79.3378 611.559
lowerback 3.84981 2.64834 9.91366
upperback 1.79983 3.71809 3.96884
thorax 0.0898567 1.83003 -1.54438
lowerneck -16.1055 -2.639 -9.87887
upperneck 31.4362 -3.5234 5.81344
head 13.5953 -2.20883 3.38987
rclavicle -4.08502e-014 -2.90226e-014
rhumerus -26.2919 -7.09435 -81.5689
rradius 29.0575
rwrist -11.7774
rhand -21.7605 12.9605
rfingers 7.12502
rthumb 4.64005 -16.9687
lclavicle -4.08502e-014 -2.90226e-014
lhumerus -39.7761 13.2606 81.3635
lradius 24.347
lwrist -3.48736
lhand -17.3183 23.1262
lfingers 7.12502
lthumb 8.9282 52.9173
rfemur 18.953 -1.38385 33.6231
rtibia 3.49861e-014
rfoot -10.1701 0.64891
rtoes -13.1876
lfemur -33.2054 -2.50661 -5.86225
ltibia 24.9967
lfoot -12.5797 -2.27282
ltoes 0.898032
2138
root 26.4436 17.2402 -21.9246 833.02 -79.3654 611.332
lowerback 3.82565 2.70664 9.86108
upperback 1.78492 3.79461 3.92183
thorax 0.0947601 1.86914 -1.56508
lowerneck -15.6191 -2.78394 -9.70699
upperneck 30.6912 -3.66861 5.48424
head 13.1784 -2.27542 3.18864
rclavicle 6.5102e-014 3.57812e-014
rhumerus -26.5756 -7.44068 -81.4973
rradius 29.0165
rwrist -11.7578
rhand -21.9711 12.4821
rfingers 7.12502
rthumb 4.43665 -17.4514
lclavicle 6.5102e-014 3.57812e-014
lhumerus -39.7307 13.1571 81.2137
lradius 23.8896
lwrist -3.96314
lhand -17.3345 22.9634
lfingers 7.12502
lthumb 8.91255 52.7551
rfemur 19.42 -1.28002 33.4659
rtibia -7.31528e-014
rfoot -9.77268 0.903005
rtoes -12.6082
lfemur -33.0337 1.44256 -7.32565
ltibia 25.4183
lfoot -10.3101 -7.15854
ltoes 9.26059
2139
root 26.3217 17.2373 -21.9128 833.183 -79.4221 611.187
lowerback 3.79773 2.70507 9.87359
upperback 1.78417 3.79123 3.86482
thorax 0.113942 1.86964 -1.62914
lowerneck -15.8702 -2.78013 -9.94035
upperneck 30.8996 -3.73454 5.95315
head 13.3409 -2.27326 3.41013
rclavicle -4.13472e-014 -6.36111e-015
rhumerus -26.71 -7.99498 -81.3878
rradius 28.8259
rwrist -11.491
rhand -21.9295 12.3047
rfingers 7.12502
rthumb 4.47683 -17.628
lclavicle -4.13472e-014 -6.36111e-015
lhumerus -39.7777 13.2354 80.9602
lradius 23.6073
lwrist -4.43196
lhand -17.1562 22.507
lfingers 7.12502
lthumb 9.08459 52.2914
rfemur 19.7817 -1.20194 33.3112
rtibia 3.49861e-014
rfoot -9.26041 1.03979
rtoes -13.6034
lfemur -32.97 2.86627 -8.19428
ltibia 25.8365
lfoot -9.68865 -7.56799
ltoes 0.0392635
2140
root 26.1924 17.247 -21.8991 833.289 -79.3426 611.085
lowerback 3.76465 2.77559 10.0282
upperback 1.71577 3.89474 3.76722
thorax 0.0891123 1.92127 -1.8161
lowerneck -15.9057 -2.78514 -9.55661
upperneck 31.0181 -3.82285 5.8153
head 13.3945 -2.28846 3.27609
rclavicle 6.16232e-015 -3.06128e-014
rhumerus -27.0731 -8.68877 -81.3275
rradius 28.6284
rwrist -11.3845
rhand -21.9211 12.6704
rfingers 7.12502
rthumb 4.48495 -17.2622
lclavicle 6.16232e-015 -3.06128e-014
lhumerus -39.9059 13.0285 80.676
lradius 23.3783
lwrist -3.75392
lhand -17.0414 21.6845
lfingers 7.12502
lthumb 9.19536 51.464
rfemur 20.2012 -1.07744 33.2692
rtibia -6.36111e-014
rfoot -8.73568 1.30332
rtoes -14.0441
lfemur -32.9172 3.39997 -8.39724
ltibia 26.0801
lfoot -8.47573 -7.57429
ltoes -0.174276
2141
root 26.0571 17.2792 -21.8869 834.012 -79.2864 610.379
lowerback 3.64736 2.8707 10.0007
upperback 1.66641 4.01245 3.70187
thorax 0.118086 1.98165 -1.86563
lowerneck -15.944 -2.69808 -9.16976
upperneck 31.1712 -3.82708 5.81329
head 13.4568 -2.25024 3.2104
rclavicle 1.45113e-014 2.66371e-014
rhumerus -27.5075 -9.05727 -81.2549
rradius 28.4988
rwrist -11.4701
rhand -22.0131 12.8444
rfingers 7.12502
rthumb 4.39616 -17.09
lclavicle 1.45113e-014 2.66371e-014
lhumerus -39.9261 12.6509 80.6045
lradius 23.0652
lwrist -2.94432
lhand -16.9761 21.3949
lfingers 7.12502
lthumb 9.25838 51.1717
rfemur 20.6354 -0.841122 33.0994
rtibia 5.40694e-014
rfoot -8.00815 1.80304
rtoes -11.603
lfemur -32.6663 3.83894 -8.59901
ltibia 26.2054
lfoot -7.87926 -7.40031
ltoes -0.751822
2142
root 25.9205 17.3171 -21.8724 835.318 -79.5094 609.164
lowerback 3.42251 2.97536 9.71081
upperback 1.64904 4.12276 3.57603
thorax 0.224664 2.04344 -1.82714
lowerneck -15.5288 -2.9441 -9.31975
upperneck 30.7706 -4.18032 5.8844
head 13.2382 -2.409 3.1999
rclavicle -1.51076e-014 -1.07344e-014
rhumerus -27.763 -9.72021 -81.044
rradius 28.1628
rwrist -10.9378
rhand -21.868 13.0661
rfingers 7.12502
rthumb 4.53621 -16.8654
lclavicle -1.51076e-014 -1.07344e-014
lhumerus -39.9217 13.1618 80.2192
lradius 22.6901
lwrist -3.8673
lhand -16.8593 21.6363
lfingers 7.12502
lthumb 9.37115 51.408
rfemur 20.9585 -0.603041 32.5757
rtibia -3.18055e-015
rfoot -6.99019 2.313
rtoes -7.06292
lfemur -32.4434 4.07811 -9.03436
ltibia 26.2574
lfoot -7.64482 -7.62739
ltoes -1.07505
2143
root 25.7873 17.3478 -21.855 836.908 -79.9467 607.682
lowerback 3.23583 3.04475 9.18598
upperback 1.61869 4.1902 3.44354
thorax 0.27391 2.08086 -1.66951
lowerneck -15.5954 -3.00731 -9.54935
upperneck 30.8936 -4.2894 6.12586
head 13.3277 -2.45523 3.32108
rclavicle 5.76476e-015 1.07344e-014
rhumerus -27.9691 -10.3129 -80.7825
rradius 27.7524
rwrist -10.1513
rhand -21.6555 13.4707
rfingers 7.12502
rthumb 4.74138 -16.4563
lclavicle 5.76476e-015 1.07344e-014
lhumerus -39.8198 13.2053 80.2152
lradius 22.3023
lwrist -3.78079
lhand -17.5551 21.7233
lfingers 7.12502
lthumb 8.69967 51.5241
rfemur 21.2412 -0.423145 31.8329
rtibia 6.36111e-015
rfoot -5.94846 2.70405
rtoes -2.63454
lfemur -32.1935 3.69119 -9.50314
ltibia 26.2552
lfoot -7.51105 -7.56125
ltoes -0.510407
2144
root 25.6532 17.3705 -21.8399 838.167 -80.3094 606.323
lowerback 3.33848 3.04475 8.68479
upperback 1.59267 4.19971 3.33995
thorax 0.159379 2.08245 -1.51121
lowerneck -15.7038 -2.96819 -9.40635
upperneck 31.058 -4.24164 6.01214
head 13.4094 -2.43567 3.26146
rclavicle 3.35449e-014 1.59028e-014
rhumerus -28.3237 -10.421 -80.7198
rradius 27.601
rwrist -10.1113
rhand -21.8269 13.2433
rfingers 7.12502
rthumb 4.57588 -16.6873
lclavicle 3.35449e-014 1.59028e-014
lhumerus -39.8362 12.4422 80.5153
lradius 22.2828
lwrist -2.63379
lhand -18.0702 22.1393
lfingers 7.12502
lthumb 8.20257 51.9601
rfemur 21.6852 -0.345118 31.3913
rtibia -3.81667e-014
rfoot -4.96609 2.45628
rtoes -6.6618
lfemur -31.5638 2.0043 -9.45183
ltibia 26.229
lfoot -7.72463 -6.2038
ltoes -1.02128
2145
root 25.511 17.3984 -21.8263 839.571 -80.7596 604.719
lowerback 3.43767 2.98441 8.18011
upperback 1.62965 4.1227 3.17699
thorax 0.10932 2.04567 -1.40737
lowerneck -15.9372 -2.91766 -9.29951
upperneck 31.2467 -4.15966 5.9215
head 13.5275 -2.40027 3.22308
rclavicle -1.24737e-014 -1.98785e-015
rhumerus -28.6316 -10.4759 -80.7541
rradius 27.492
rwrist -10.3723
rhand -22.2849 12.874
rfingers 7.12502
rthumb 4.13362 -17.0656
lclavicle -1.24737e-014 -1.98785e-015
lhumerus -40.0571 12.755 80.1897
lradius 22.3884
lwrist -2.93835
lhand -18.012 22.7888
lfingers 7.12502
lthumb 8.25876 52.6074
rfemur 20.9162 -0.31141 30.7405
rtibia 2.82008
rfoot -4.97598 2.35054
rtoes -7.1537
lfemur -31.0359 3.58013 -10.5834
ltibia 26.3451
lfoot -6.90432 -8.06668
ltoes -1.89954
2146
root 25.3701 17.4134 -21.8087 840.18 -81.1253 604.068
lowerback 3.27445 2.88188 7.85935
upperback 1.6766 3.96179 3.07808
thorax 0.219657 1.97155 -1.32008
lowerneck -16.0154 -2.84566 -9.41419
upperneck 31.2034 -4.03312 6.01345
head 13.5182 -2.34357 3.29995
rclavicle -3.27995e-014 2.38542e-014
rhumerus -28.7944 -10.7979 -80.6371
rradius 27.1549
rwrist -10.0226
rhand -22.2945 12.8542
rfingers 7.12502
rthumb 4.12436 -17.0856
lclavicle -3.27995e-014 2.38542e-014
lhumerus -40.2081 13.7878 79.6146
lradius 22.3066
lwrist -3.92791
lhand -18.0802 22.9464
lfingers 7.12502
lthumb 8.19291 52.7676
rfemur 19.1224 -0.3745 30.229
rtibia 7.25742
rfoot -5.61888 2.36251
rtoes -6.65966
lfemur -30.6675 4.36414 -11.3477
ltibia 26.5359
lfoot -6.50623 -8.97974
ltoes -3.01918
2147
root 25.227 17.4196 -21.7846 839.28 -81.1772 604.812
lowerback 3.2052 2.88032 7.97344
upperback 1.72061 3.95239 3.02791
thorax 0.315107 1.97215 -1.42814
lowerneck -15.7344 -2.88582 -9.36386
upperneck 30.9407 -4.14446 6.09496
head 13.3562 -2.37341 3.30046
rclavicle 1.46604e-014 6.75868e-015
rhumerus -29.1198 -11.5613 -80.4172
rradius 26.8063
rwrist -9.46524
rhand -22.0815 12.8857
rfingers 7.12502
rthumb 4.33009 -17.05
lclavicle 1.46604e-014 6.75868e-015
lhumerus -40.1728 13.9452 79.352
lradius 22.17
lwrist -4.4529
lhand -17.8126 22.8331
lfingers 7.12502
lthumb 8.45121 52.644
rfemur 17.9281 -0.483503 30.0937
rtibia 10.6261
rfoot -5.72042 2.34231
rtoes -5.82381
lfemur -30.0987 4.78517 -11.5885
ltibia 26.6627
lfoot -6.38003 -9.47554
ltoes -4.19165
